<svg width="64" height="64" viewBox="0 0 64 64" fill="none" xmlns="http://www.w3.org/2000/svg" role="img" aria-labelledby="title desc">
  <title id="title">GradeTap mark</title>
  <desc id="desc">A compact GradeTap logo combining evidence nodes, a rubric sheet, and a checked score.</desc>
  <defs>
    <linearGradient id="markBg" x1="8" y1="5" x2="58" y2="60" gradientUnits="userSpaceOnUse">
      <stop stop-color="#16D9F3"/>
      <stop offset="0.56" stop-color="#2487E8"/>
      <stop offset="1" stop-color="#0C2A45"/>
    </linearGradient>
    <linearGradient id="paper" x1="19" y1="13" x2="45" y2="50" gradientUnits="userSpaceOnUse">
      <stop stop-color="#FFFFFF"/>
      <stop offset="1" stop-color="#DDF7FF"/>
    </linearGradient>
    <filter id="softShadow" x="-20%" y="-20%" width="140%" height="150%" color-interpolation-filters="sRGB">
      <feDropShadow dx="0" dy="8" stdDeviation="5" flood-color="#031827" flood-opacity="0.28"/>
    </filter>
  </defs>
  <rect x="4" y="4" width="56" height="56" rx="14" fill="url(#markBg)"/>
  <path d="M13 48L25 36L36 41L50 22" stroke="#A7F3FF" stroke-width="3" stroke-linecap="round" stroke-linejoin="round" opacity="0.7"/>
  <circle cx="13" cy="48" r="3.8" fill="#E9FBFF"/>
  <circle cx="25" cy="36" r="3.8" fill="#E9FBFF"/>
  <circle cx="36" cy="41" r="3.8" fill="#E9FBFF"/>
  <circle cx="50" cy="22" r="3.8" fill="#E9FBFF"/>
  <g filter="url(#softShadow)">
    <path d="M21 12H40L48 20V49C48 51.2 46.2 53 44 53H21C18.8 53 17 51.2 17 49V16C17 13.8 18.8 12 21 12Z" fill="url(#paper)"/>
    <path d="M40 12V18C40 19.7 41.3 21 43 21H48" fill="#BCEFFF"/>
    <path d="M25 27H39" stroke="#0C5F86" stroke-width="2.4" stroke-linecap="round"/>
    <path d="M25 34H35" stroke="#0C5F86" stroke-width="2.4" stroke-linecap="round" opacity="0.72"/>
    <path d="M25 41H32" stroke="#0C5F86" stroke-width="2.4" stroke-linecap="round" opacity="0.55"/>
    <path d="M33 43.5L38 48.5L48 36.5" stroke="#0D9488" stroke-width="4" stroke-linecap="round" stroke-linejoin="round"/>
  </g>
</svg>
